<svg xmlns="http://www.w3.org/2000/svg" width="282.825" height="44.709" viewBox="0 0 282.825 44.709">
  <g id="logo-tsHN" transform="translate(-2292.073 -5142.109)">
    <g id="Group_240" data-name="Group 240" transform="translate(1904 5113)">
      <path id="Path_591" data-name="Path 591" d="M8.938,0h-2.2V-4.742H3.078V0H.875V-11.375h2.2v4.914H6.742v-4.914h2.2Zm7.438-5.023H12.9v3.3h4.164V0H10.7V-11.375h6.352v1.727H12.9v2.906h3.477Zm.141-7.586v.172H14.8l-.906-1.055-.906,1.055H11.3v-.2l1.977-1.852h1.242ZM15.109,2.664H12.656V.813h2.453ZM28.844-9.648H26.172V0H23.961V-9.648h-2.6v-1.727h7.484ZM37.984,0h-2.2V-4.742H32.125V0h-2.2V-11.375h2.2v4.914h3.664v-4.914h2.2Zm9.828-4.094A4.218,4.218,0,0,1,46.68-.961,4.092,4.092,0,0,1,43.664.164,4.065,4.065,0,0,1,40.656-.961a4.235,4.235,0,0,1-1.125-3.133V-7.266A4.273,4.273,0,0,1,40.652-10.4a4.028,4.028,0,0,1,3-1.137,4.081,4.081,0,0,1,3.02,1.137,4.239,4.239,0,0,1,1.137,3.137Zm-2.2-3.2a2.965,2.965,0,0,0-.5-1.875A1.753,1.753,0,0,0,43.656-9.8a1.711,1.711,0,0,0-1.445.629,3.05,3.05,0,0,0-.484,1.879v3.2a3.081,3.081,0,0,0,.488,1.9,1.717,1.717,0,0,0,1.449.633A1.739,1.739,0,0,0,45.121-2.2a3.044,3.044,0,0,0,.5-1.9ZM42.8-14.5h1.789l2.039,1.945-.016.047H44.68L43.7-13.641l-.969,1.133H40.781l-.016-.047Zm4.18-1.391h1.992L47.5-13.812H45.984ZM57.414,0h-2.2L51.6-7.258l-.047.008V0h-2.2V-11.375h2.2l3.609,7.266.047-.008v-7.258h2.2Zm9.367-1.5a4,4,0,0,1-1.4,1.172,5,5,0,0,1-2.371.492A4.079,4.079,0,0,1,60.051-.91a4.042,4.042,0,0,1-1.113-3.051V-7.414a4.112,4.112,0,0,1,1.082-3.047,3.878,3.878,0,0,1,2.863-1.078,3.984,3.984,0,0,1,2.8.879,3.162,3.162,0,0,1,.914,2.5l-.016.047h-2.07a1.822,1.822,0,0,0-.391-1.3,1.566,1.566,0,0,0-1.18-.406,1.608,1.608,0,0,0-1.328.594,2.822,2.822,0,0,0-.477,1.789v3.469a2.832,2.832,0,0,0,.484,1.813,1.682,1.682,0,0,0,1.383.594,2.7,2.7,0,0,0,1.008-.152,1.351,1.351,0,0,0,.563-.4v-2.3H62.844V-5.93h3.938ZM78.75-9.648H76.078V0H73.867V-9.648h-2.6v-1.727H78.75Zm9.016-1.727v7.43A4.029,4.029,0,0,1,86.652-.922,3.98,3.98,0,0,1,83.75.164a3.948,3.948,0,0,1-2.891-1.09,4.04,4.04,0,0,1-1.109-3.02v-7.43h2.2v7.43a2.817,2.817,0,0,0,.484,1.777,1.592,1.592,0,0,0,1.32.613,1.6,1.6,0,0,0,1.332-.609,2.831,2.831,0,0,0,.48-1.781v-7.43ZM92.984-6.43h.047l1.961-4.945H97.4l-3.32,7.32V0h-2.2V-4.2l-3.258-7.18h2.406Zm11.039,1.406h-3.477v3.3h4.164V0H98.344V-11.375H104.7v1.727h-4.148v2.906h3.477Zm-1.6-9.07h-1.836l-2.023,1.945.016.047h1.914l1.008-1.18,1.008,1.18h1.906l.016-.047Zm1.43.953-.117-.867a1.436,1.436,0,0,0,.582-.125.34.34,0,0,0,.184-.32.385.385,0,0,0-.2-.367,1.174,1.174,0,0,0-.559-.109l.047-.852a3.451,3.451,0,0,1,1.684.332,1.024,1.024,0,0,1,.582.926.914.914,0,0,1-.238.676,1.031,1.031,0,0,1-.582.293v.414ZM114.172,0h-2.2l-3.609-7.258-.047.008V0h-2.2V-11.375h2.2l3.609,7.266.047-.008v-7.258h2.2Zm10.3-2.953a1.568,1.568,0,0,0-.348-1.074,3.459,3.459,0,0,0-1.246-.77,8.018,8.018,0,0,1-2.633-1.4,2.768,2.768,0,0,1-.883-2.187,2.881,2.881,0,0,1,1.008-2.277,3.769,3.769,0,0,1,2.57-.879,3.755,3.755,0,0,1,2.664.938,3.178,3.178,0,0,1,.977,2.516l-.016.047H124.43a2,2,0,0,0-.395-1.34,1.41,1.41,0,0,0-1.129-.457,1.216,1.216,0,0,0-.984.418,1.565,1.565,0,0,0-.352,1.043,1.252,1.252,0,0,0,.4.953,5.335,5.335,0,0,0,1.367.82,6.373,6.373,0,0,1,2.5,1.383,3.017,3.017,0,0,1,.848,2.25,2.843,2.843,0,0,1-.992,2.3,3.951,3.951,0,0,1-2.633.836,4.34,4.34,0,0,1-2.766-.9,3.185,3.185,0,0,1-1.109-2.746l.016-.047h2.148a2.232,2.232,0,0,0,.434,1.539,1.655,1.655,0,0,0,1.277.469,1.371,1.371,0,0,0,1.066-.391A1.484,1.484,0,0,0,124.477-2.953ZM130.43,0h-2.2V-11.375h2.2Zm9.945,0h-2.2l-3.609-7.258-.047.008V0h-2.2V-11.375h2.2l3.609,7.266.047-.008v-7.258h2.2Zm9.813,0h-2.2V-4.742h-3.664V0h-2.2V-11.375h2.2v4.914h3.664v-4.914h2.2Zm12.141-9.648h-2.672V0h-2.211V-9.648h-2.6v-1.727h7.484Zm3.281,5.086V0h-2.2V-11.367h3.406a3.822,3.822,0,0,1,2.668.883,3.155,3.155,0,0,1,.973,2.461,2.8,2.8,0,0,1-.41,1.531,2.859,2.859,0,0,1-1.184,1.031,2.2,2.2,0,0,1,1.281.984,3.439,3.439,0,0,1,.391,1.719v.828a4.891,4.891,0,0,0,.109,1,1.338,1.338,0,0,0,.391.766V0H168.75a1.3,1.3,0,0,1-.348-.816,8.68,8.68,0,0,1-.074-1.129v-.8a2.194,2.194,0,0,0-.359-1.344,1.214,1.214,0,0,0-1.031-.477Zm0-1.719H166.8a1.358,1.358,0,0,0,1.082-.426,1.78,1.78,0,0,0,.371-1.207,2,2,0,0,0-.367-1.266,1.278,1.278,0,0,0-1.07-.469h-1.2Zm14.563-5.094v1.359l.047.008a1.073,1.073,0,0,0,.7-.793,6.3,6.3,0,0,0,.2-1.785h1.563a5.576,5.576,0,0,1-.6,2.82,2.6,2.6,0,0,1-1.906,1.25v4.57a4.029,4.029,0,0,1-1.113,3.023,3.98,3.98,0,0,1-2.9,1.086,3.948,3.948,0,0,1-2.891-1.09,4.04,4.04,0,0,1-1.109-3.02v-7.43h2.2v7.43a2.817,2.817,0,0,0,.484,1.777,1.592,1.592,0,0,0,1.32.613,1.6,1.6,0,0,0,1.332-.609,2.831,2.831,0,0,0,.48-1.781v-7.43ZM177.508,2.8h-2.453V.953h2.453ZM189.7-3.531l.016.047a3.5,3.5,0,0,1-.934,2.738,3.861,3.861,0,0,1-2.754.91,3.93,3.93,0,0,1-2.914-1.082,4.167,4.167,0,0,1-1.078-3.074V-7.367a4.282,4.282,0,0,1,1.043-3.078,3.708,3.708,0,0,1,2.816-1.094,4.126,4.126,0,0,1,2.867.906,3.434,3.434,0,0,1,.969,2.742l-.016.047H187.57a2.331,2.331,0,0,0-.387-1.531,1.652,1.652,0,0,0-1.293-.437,1.411,1.411,0,0,0-1.242.6,3.247,3.247,0,0,0-.414,1.832v3.391a3.083,3.083,0,0,0,.445,1.84,1.568,1.568,0,0,0,1.344.6,1.45,1.45,0,0,0,1.18-.434,2.478,2.478,0,0,0,.359-1.543Zm11.781-6.117H198.8V0h-2.211V-9.648h-2.6v-1.727h7.484Zm9.016-1.727v7.43a4.029,4.029,0,0,1-1.113,3.023,3.98,3.98,0,0,1-2.9,1.086,3.948,3.948,0,0,1-2.891-1.09,4.04,4.04,0,0,1-1.109-3.02v-7.43h2.2v7.43a2.817,2.817,0,0,0,.484,1.777,1.592,1.592,0,0,0,1.32.613,1.6,1.6,0,0,0,1.332-.609,2.831,2.831,0,0,0,.48-1.781v-7.43Zm5.219,4.945h.047l1.961-4.945h2.406l-3.32,7.32V0h-2.2V-4.2l-3.258-7.18h2.406ZM226.75-5.023h-3.477v3.3h4.164V0H221.07V-11.375h6.352v1.727h-4.148v2.906h3.477Zm-3.359-9.312h1.789l2.039,1.945-.016.047h-1.937l-.984-1.133-.969,1.133h-1.945l-.016-.047Zm4.18-1.391h1.992l-1.477,2.078H226.57ZM236.9,0h-2.2l-3.609-7.258-.047.008V0h-2.2V-11.375h2.2l3.609,7.266.047-.008v-7.258h2.2Z" transform="translate(434 45)" fill="#0072c5"/>
      <path id="Path_20713" data-name="Path 20713" d="M13.721,0H10.557V-5.7h-5.8V0H1.6V-14H4.756v5.586h5.8V-14h3.164ZM29.238,0H25.8l-1-3.115h-4.98L18.838,0H15.42l5.1-14h3.74ZM24.082-5.537l-1.5-4.707a6.134,6.134,0,0,1-.234-1.26h-.078a5.341,5.341,0,0,1-.244,1.221L20.5-5.537Zm.186-9.766H22.051l-3.066-3.154h2.744ZM49.1,0H45.918L40.146-8.8a12.723,12.723,0,0,1-.7-1.162H39.4q.078.742.078,2.266V0H36.5V-14h3.4l5.557,8.525q.381.576.7,1.143H46.2a14.973,14.973,0,0,1-.078-1.924V-14H49.1Zm9.121.244a6.519,6.519,0,0,1-4.9-1.958,7.029,7.029,0,0,1-1.895-5.1,7.533,7.533,0,0,1,1.924-5.371,6.661,6.661,0,0,1,5.1-2.051A6.356,6.356,0,0,1,63.3-12.275,7.237,7.237,0,0,1,65.146-7.1a7.412,7.412,0,0,1-1.919,5.322A6.586,6.586,0,0,1,58.223.244Zm.137-11.768a3.175,3.175,0,0,0-2.637,1.245,5.191,5.191,0,0,0-.977,3.3,5.1,5.1,0,0,0,.977,3.291A3.129,3.129,0,0,0,58.281-2.48a3.16,3.16,0,0,0,2.588-1.177,5.04,5.04,0,0,0,.957-3.267,5.462,5.462,0,0,0-.928-3.389A3.025,3.025,0,0,0,58.359-11.523Zm3.594-3.467H59.932l-1.543-1.836L56.953-14.99H54.932l2.295-3.174h2.422ZM58.2,3.818a1.532,1.532,0,0,1-1.079-.391A1.24,1.24,0,0,1,56.7,2.48a1.192,1.192,0,0,1,.43-.952A1.6,1.6,0,0,1,58.2,1.162a1.544,1.544,0,0,1,1.069.371,1.214,1.214,0,0,1,.415.947,1.244,1.244,0,0,1-.415.957A1.52,1.52,0,0,1,58.2,3.818ZM70.625,0H67.471V-14h3.154Z" transform="translate(433 70)" fill="#0072c5"/>
      <g id="ico-app" transform="translate(388.073 31.027)">
        <path id="Path_20682" data-name="Path 20682" d="M0,19.827H0V19.76H0A19.887,19.887,0,0,1,19.827,0h18.2c3.587-.06,1.342,5.646-2.013,5.513H20.232A14.357,14.357,0,0,0,5.918,19.82v.027A14.357,14.357,0,0,0,20.232,34.154H36.014c3.354-.133,5.6,5.573,2.013,5.513h-18.2A19.885,19.885,0,0,1,0,19.893H0V19.84Z" transform="translate(0 0)" fill="#0072c5" fill-rule="evenodd"/>
        <path id="Path_20683" data-name="Path 20683" d="M22.77,28.275h0a3.124,3.124,0,0,1,3.115-3.115H43.514a3.124,3.124,0,0,1,3.115,3.115h0a3.124,3.124,0,0,1-3.115,3.115H25.885a3.124,3.124,0,0,1-3.115-3.115Z" transform="translate(-7.646 -8.448)" fill="#f5a834" fill-rule="evenodd"/>
      </g>
    </g>
  </g>
</svg>
